<svg xmlns="http://www.w3.org/2000/svg" width="64" height="64" viewBox="0 0 64 64" fill="none" role="img" aria-label="Minha Plataforma">
  <defs>
    <linearGradient id="mp_g" x1="0" y1="0" x2="64" y2="64" gradientUnits="userSpaceOnUse">
      <stop stop-color="#4F6BFF"/>
      <stop offset="1" stop-color="#2F45FF"/>
    </linearGradient>
    <filter id="mp_shadow" x="-20%" y="-40%" width="140%" height="180%" color-interpolation-filters="sRGB">
      <feDropShadow dx="0" dy="2" stdDeviation="2" flood-color="#2F45FF" flood-opacity="0.18"/>
    </filter>
  </defs>

  <g filter="url(#mp_shadow)">
    <rect x="6" y="6" width="52" height="52" rx="16" fill="url(#mp_g)"/>

    <path d="M18 22h14c3 0 5-2 5-5v-2" stroke="rgba(255,255,255,0.85)" stroke-width="2.2" stroke-linecap="round"/>
    <path d="M18 32h18c3 0 5 2 5 5v2" stroke="rgba(255,255,255,0.85)" stroke-width="2.2" stroke-linecap="round"/>
    <path d="M18 42h10" stroke="rgba(255,255,255,0.85)" stroke-width="2.2" stroke-linecap="round"/>

    <circle cx="18" cy="22" r="2.2" fill="white" opacity="0.95"/>
    <circle cx="18" cy="32" r="2.2" fill="white" opacity="0.95"/>
    <circle cx="18" cy="42" r="2.2" fill="white" opacity="0.95"/>
    <circle cx="37" cy="13" r="2.2" fill="white" opacity="0.95"/>
    <circle cx="41" cy="49" r="2.2" fill="white" opacity="0.95"/>

    <path d="M28 41V23l6 10 6-10v18" stroke="white" stroke-width="2.8" stroke-linecap="round" stroke-linejoin="round" opacity="0.95"/>
  </g>
</svg>
